<svg xmlns="http://www.w3.org/2000/svg" viewBox="0 0 512 512">
  <defs>
    <linearGradient id="g1" x1="0" y1="0" x2="0" y2="1">
      <stop offset="0" stop-color="#1f3b8a"/>
      <stop offset="1" stop-color="#0b1e4a"/>
    </linearGradient>
    <linearGradient id="g2" x1="0" y1="0" x2="1" y2="1">
      <stop offset="0" stop-color="#f7d26a"/>
      <stop offset="1" stop-color="#c59b2c"/>
    </linearGradient>
    <filter id="shadow" x="-20%" y="-20%" width="140%" height="140%">
      <feDropShadow dx="0" dy="8" stdDeviation="10" flood-color="#000" flood-opacity="0.35"/>
    </filter>
  </defs>

  <g filter="url(#shadow)">
    <path d="M256 38c86 0 160 38 160 38v158c0 140-108 210-160 240-52-30-160-100-160-240V76s74-38 160-38z" fill="url(#g2)"/>
    <path d="M256 62c74 0 136 32 136 32v140c0 122-92 186-136 212-44-26-136-90-136-212V94s62-32 136-32z" fill="url(#g1)"/>

    <path d="M132 156h248c-10-26-22-42-22-42s-46-22-102-22-102 22-102 22-12 16-22 42z" fill="#0a1533" opacity="0.75"/>
    <text x="256" y="145" text-anchor="middle" font-family="Times New Roman, serif" font-size="22" font-weight="700" fill="#ffffff" letter-spacing="1.2">
      TEAMWORK  PASSION  RESPECT
    </text>

    <g transform="translate(0,10)">
      <path d="M98 210h316l-22 84H120l-22-84z" fill="#0a1533" opacity="0.7"/>
      <text x="256" y="262" text-anchor="middle" font-family="Times New Roman, serif" font-size="72" font-weight="900" fill="#ffffff" stroke="#0b1e4a" stroke-width="10" paint-order="stroke">
        ARMADA
      </text>
      <text x="256" y="314" text-anchor="middle" font-family="Times New Roman, serif" font-size="44" font-weight="900" fill="#f7d26a" stroke="#0b1e4a" stroke-width="8" paint-order="stroke">
        FUTSAL
      </text>
    </g>

    <text x="256" y="362" text-anchor="middle" font-family="Times New Roman, serif" font-size="18" font-weight="700" fill="#ffffff" letter-spacing="1">
      NEVER GIVE UP
    </text>

    <g transform="translate(0,12)">
      <circle cx="344" cy="372" r="46" fill="#ffffff" stroke="#0b1e4a" stroke-width="10"/>
      <path d="M344 332l22 14-8 24h-28l-8-24 22-14z" fill="#0b1e4a"/>
      <path d="M315 362l20-10 9 9-6 22h-18l-5-21z" fill="#0b1e4a"/>
      <path d="M373 362l-20-10-9 9 6 22h18l5-21z" fill="#0b1e4a"/>
    </g>

    <path d="M256 62c74 0 136 32 136 32v140c0 122-92 186-136 212-44-26-136-90-136-212V94s62-32 136-32z" fill="none" stroke="#ffffff" stroke-width="6" opacity="0.35"/>
  </g>
</svg>
